<?xml version="1.0" encoding="utf-8"?>
<!-- Generator: Adobe Illustrator 16.0.0, SVG Export Plug-In . SVG Version: 6.00 Build 0)  -->
<!DOCTYPE svg PUBLIC "-//W3C//DTD SVG 1.1//EN" "http://www.w3.org/Graphics/SVG/1.1/DTD/svg11.dtd">
<svg version="1.1"
	 id="Layer_1" xmlns:rdf="http://www.w3.org/1999/02/22-rdf-syntax-ns#" xmlns:cc="http://creativecommons.org/ns#" xmlns:dc="http://purl.org/dc/elements/1.1/"
	 xmlns="http://www.w3.org/2000/svg" xmlns:xlink="http://www.w3.org/1999/xlink" x="0px" y="0px" width="480px" height="480px"
	 viewBox="0 0 480 480" enable-background="new 0 0 480 480" xml:space="preserve">
<rect y="0.5" fill="#8F0000" width="480" height="479.5"/>
<title>Node-RED Icon</title>
<g transform="matrix(8.545 0 0 8.545 -786.19 -1949.8)">
	<path fill="#FFFFFF" d="M103.325,254.087c0.015-2.55-2.037-4.577-4.586-4.577h-6.675v3.128h6.675c0.861,0,1.583,0.624,1.583,1.485
		v4.536c0,0.861-0.722,1.612-1.583,1.612h-6.675v3.003h6.675c2.55,0,4.586-2.065,4.586-4.615l0-2.118
		c10.549,0.151,13.618,2.894,16.976,5.829c3.233,2.828,6.859,5.867,16.307,5.942l0.001,1.04c0.001,2.55,2.09,4.684,4.639,4.684
		h6.872v-3.253h-6.872c-0.861,0-1.511-0.569-1.511-1.43v-4.536c0-0.861,0.65-1.542,1.511-1.542h6.872v-3.003h-6.872
		c-2.55,0-4.638,1.995-4.639,4.545l-0.001,1.074c-8.929-0.029-11.465-2.506-14.712-5.345c-2.771-2.423-6.027-5.087-13.2-6.056
		c0.062-0.054,0.12-0.105,0.18-0.161c1.381-1.267,2.126-2.797,2.855-4.118c0.729-1.321,1.414-2.424,2.537-3.195
		c0.911-0.625,2.207-1.091,4.198-1.178l0,1.061c0,2.55,2.057,4.739,4.606,4.739h18.435c2.55,0,4.611-2.19,4.611-4.739v-4.536
		c0-2.55-2.062-4.614-4.611-4.614h-18.435c-2.55,0-4.608,2.064-4.606,4.614l0.001,1.052c-2.403,0.097-4.224,0.68-5.568,1.602
		c-1.63,1.119-2.53,2.648-3.289,4.024c-0.759,1.376-1.401,2.61-2.372,3.5c-0.845,0.775-2.014,1.373-3.911,1.596L103.325,254.087z
		 M123.071,240.876h18.435c0.861,0,1.483,0.625,1.483,1.486v4.536c0,0.861-0.622,1.486-1.483,1.486h-18.435
		c-0.861,0-1.603-0.625-1.603-1.486v-4.536C121.468,241.501,122.21,240.876,123.071,240.876z"/>
</g>
</svg>
