<svg id="Layer_1" data-name="Layer 1" xmlns="http://www.w3.org/2000/svg" xmlns:xlink="http://www.w3.org/1999/xlink" viewBox="0 0 301.37 301.37"><defs><style>.cls-1{fill:url(#linear-gradient);}.cls-2{fill:#fff;}</style><linearGradient id="linear-gradient" x1="318.59" y1="-38.34" x2="8.19" y2="311.09" gradientUnits="userSpaceOnUse"><stop offset="0" stop-color="#ea66a1"/><stop offset="0.97" stop-color="#a6356b"/><stop offset="1" stop-color="#8a2858"/></linearGradient></defs><title>Mevris Home</title><rect class="cls-1" width="301.37" height="301.37" rx="39.09" ry="39.09"/><path class="cls-2" d="M81.28,154.58v65.89a12.88,12.88,0,0,0,12.88,12.88h113a12.88,12.88,0,0,0,12.88-12.88V154.58L150.68,91.53Zm102.82,0H197v40.95H182.47v-20l-30.63,38.74h-3.2l-30.71-37.65v18.91H104.73V154.58H118l33.13,40.16Z"/><path class="cls-2" d="M254.85,138.21,152.25,46.58a2.24,2.24,0,0,0-1.49-.57h-.15a2.24,2.24,0,0,0-1.49.57L46.52,138.21a2.24,2.24,0,0,0-.75,1.67h0a2.24,2.24,0,0,0,.57,1.49L54,149.93a11.1,11.1,0,0,0,15.68.91L149.19,80a2.24,2.24,0,0,1,3,0l79.56,70.87a11.1,11.1,0,0,0,15.68-.91l7.62-8.56a2.24,2.24,0,0,0,.57-1.49h0A2.24,2.24,0,0,0,254.85,138.21Z"/><path class="cls-2" d="M82.23,96.9,95,85.6a2,2,0,0,0,.67-1.49V70.75a2,2,0,0,0-2-2H80.9a2,2,0,0,0-2,2V95.4A2,2,0,0,0,82.23,96.9Z"/></svg>