<svg id="Layer_1" data-name="Layer 1" xmlns="http://www.w3.org/2000/svg" xmlns:xlink="http://www.w3.org/1999/xlink" viewBox="0 0 668 120"><defs><style>.cls-1{fill:none;}.cls-2{fill:url(#linear-gradient);}.cls-3{fill:url(#linear-gradient-2);}.cls-4{fill:url(#linear-gradient-3);}.cls-5{fill:url(#linear-gradient-4);}</style><linearGradient id="linear-gradient" x1="-99.89" y1="137.63" x2="551.3" y2="-165.86" gradientUnits="userSpaceOnUse"><stop offset="0" stop-color="#ea66a1"/><stop offset="0.53" stop-color="#7a3689"/><stop offset="1" stop-color="#8a2858"/></linearGradient><linearGradient id="linear-gradient-2" x1="-49.92" y1="240.83" x2="599.31" y2="-61.75" xlink:href="#linear-gradient"/><linearGradient id="linear-gradient-3" x1="-15.16" y1="308.75" x2="631.31" y2="7.46" xlink:href="#linear-gradient"/><linearGradient id="linear-gradient-4" x1="-7.74" y1="339.52" x2="640.56" y2="37.37" xlink:href="#linear-gradient"/></defs><title>Mevris Logo</title><path class="cls-1" d="M470.48,54.14A7.22,7.22,0,0,0,473,48.45V38.38a6,6,0,0,0-2.52-5.1c-1.38-1.07-4.36-1.27-8.06-1.27H414V56h48.43C466.12,56,469.11,55.22,470.48,54.14Z"/><polygon class="cls-2" points="93.44 75.86 45.71 18 27 18 27 77 46 77 46 49.26 89.84 104 94.45 104 139 47.68 139 77 160 77 160 18 140.95 18 93.44 75.86"/><path class="cls-3" d="M471.49,71c7.19,0,12.42-1.55,15.65-4.17s4.86-7.12,4.86-13V33.24c0-6-1.64-9.95-4.86-12.6S478.68,17,471.49,17H363.26L328.49,80.09,291.62,17H173v87h95V88H195V66h42V51H195V32h81.75l43.48,72h14.61l41.89-72H393v72h21V71h19.9l36.58,33H501L459.5,71ZM414,56V32h48.43c3.69,0,6.68.2,8.06,1.27a6,6,0,0,1,2.52,5.1V48.45a7.22,7.22,0,0,1-2.52,5.69c-1.38,1.08-4.36,1.86-8.06,1.86Z"/><rect class="cls-4" x="507" y="17" width="21" height="87"/><path class="cls-5" d="M636.2,55c-3.09-2.86-9.27-4-18.2-4H562V32h60v9.3l18-3.93V35.25c0-7.05-1.8-11.63-5.06-14.42S625.49,17,616.69,17h-51.8c-8.94,0-15,1.11-18.15,4S542,29,542,36.87v9.78c0,7.93,1.58,13.7,4.74,16.63S555.95,68,564.88,68H622V88H558V77L539,80.5v2.42c0,8,1.24,13.65,4.43,16.54s8.93,4.54,17.93,4.54H618c8.8,0,14.94-1.66,18.1-4.54s4.9-8.54,4.9-16.54v-12C641,62.93,639.29,57.82,636.2,55Z"/></svg>